<svg xmlns="http://www.w3.org/2000/svg" xmlns:xlink="http://www.w3.org/1999/xlink" width="1280"
  zoomAndPan="magnify" viewBox="0 0 960 540.000001" height="720" preserveAspectRatio="xMidYMid meet"
  version="1.0">
  <defs>
    <g />
    <clipPath id="7a3442c9e6">
      <path
        d="M 0.78125 0.429688 L 444.917969 0.429688 L 444.917969 444.566406 L 0.78125 444.566406 Z M 0.78125 0.429688 "
        clip-rule="nonzero" />
    </clipPath>
    <clipPath id="a4bd10e1df">
      <rect x="0" width="292" y="0" height="259" />
    </clipPath>
    <clipPath id="93a3b18d76">
      <rect x="0" width="276" y="0" height="259" />
    </clipPath>
    <clipPath id="7bf211fa00">
      <rect x="0" width="290" y="0" height="156" />
    </clipPath>
    <clipPath id="399f5a8dac">
      <path d="M 463 197 L 884.699219 197 L 884.699219 353 L 463 353 Z M 463 197 "
        clip-rule="nonzero" />
    </clipPath>
    <clipPath id="a84242475f">
      <path d="M 375 37 L 421.699219 37 L 421.699219 126 L 375 126 Z M 375 37 " clip-rule="nonzero" />
    </clipPath>
    <clipPath id="a86c82139b">
      <rect x="0" width="422" y="0" height="156" />
    </clipPath>
    <clipPath id="7387bc09a7">
      <rect x="0" width="885" y="0" height="445" />
    </clipPath>
  </defs>
  <g transform="matrix(1, 0, 0, 1, 38, 47)">
    <g clip-path="url(#7387bc09a7)">
      <g clip-path="url(#7a3442c9e6)">
        <path fill="#0d0d0d"
          d="M 385.5625 444.671875 L 60.246094 444.671875 C 27.402344 444.671875 0.78125 418.050781 0.78125 385.207031 L 0.78125 59.890625 C 0.78125 27.046875 27.402344 0.429688 60.246094 0.429688 L 385.5625 0.429688 C 418.40625 0.429688 445.023438 27.046875 445.023438 59.890625 L 445.023438 385.207031 C 445.023438 418.050781 418.40625 444.671875 385.5625 444.671875 Z M 385.5625 444.671875 "
          fill-opacity="1" fill-rule="nonzero" />
      </g>
      <g transform="matrix(1, 0, 0, 1, 71, 7)">
        <g clip-path="url(#a4bd10e1df)">
          <g fill="#ffffff" fill-opacity="1">
            <g transform="translate(0.384442, 205.241425)">
              <g>
                <path
                  d="M 17.53125 -147.84375 L 51.75 -147.84375 L 51.75 -27.875 L 125.875 -27.875 L 125.875 0 L 17.53125 0 Z M 17.53125 -147.84375 " />
              </g>
            </g>
          </g>
          <g fill="#00bfa5" fill-opacity="1">
            <g transform="translate(119.086494, 205.241425)">
              <g>
                <path
                  d="M 89.125 2.53125 C 73.78125 2.53125 59.945312 -0.773438 47.625 -7.390625 C 35.300781 -14.003906 25.65625 -23.117188 18.6875 -34.734375 C 11.71875 -46.359375 8.234375 -59.421875 8.234375 -73.921875 C 8.234375 -88.421875 11.71875 -101.476562 18.6875 -113.09375 C 25.65625 -124.71875 35.300781 -133.835938 47.625 -140.453125 C 59.945312 -147.066406 73.78125 -150.375 89.125 -150.375 C 104.476562 -150.375 118.273438 -147.066406 130.515625 -140.453125 C 142.765625 -133.835938 152.410156 -124.71875 159.453125 -113.09375 C 166.492188 -101.476562 170.015625 -88.421875 170.015625 -73.921875 C 170.015625 -59.421875 166.492188 -46.359375 159.453125 -34.734375 C 152.410156 -23.117188 142.765625 -14.003906 130.515625 -7.390625 C 118.273438 -0.773438 104.476562 2.53125 89.125 2.53125 Z M 89.125 -26.609375 C 97.851562 -26.609375 105.738281 -28.613281 112.78125 -32.625 C 119.820312 -36.644531 125.347656 -42.242188 129.359375 -49.421875 C 133.367188 -56.597656 135.375 -64.765625 135.375 -73.921875 C 135.375 -83.078125 133.367188 -91.242188 129.359375 -98.421875 C 125.347656 -105.597656 119.820312 -111.191406 112.78125 -115.203125 C 105.738281 -119.222656 97.851562 -121.234375 89.125 -121.234375 C 80.394531 -121.234375 72.507812 -119.222656 65.46875 -115.203125 C 58.425781 -111.191406 52.898438 -105.597656 48.890625 -98.421875 C 44.878906 -91.242188 42.875 -83.078125 42.875 -73.921875 C 42.875 -64.765625 44.878906 -56.597656 48.890625 -49.421875 C 52.898438 -42.242188 58.425781 -36.644531 65.46875 -32.625 C 72.507812 -28.613281 80.394531 -26.609375 89.125 -26.609375 Z M 89.125 -26.609375 " />
              </g>
            </g>
          </g>
        </g>
      </g>
      <g transform="matrix(1, 0, 0, 1, 106, 179)">
        <g clip-path="url(#93a3b18d76)">
          <g fill="#ffffff" fill-opacity="1">
            <g transform="translate(0.837008, 205.035184)">
              <g>
                <path
                  d="M 17.53125 -147.84375 L 51.75 -147.84375 L 51.75 0 L 17.53125 0 Z M 17.53125 -147.84375 " />
              </g>
            </g>
          </g>
          <g fill="#ffffff" fill-opacity="1">
            <g transform="translate(107.280973, 205.035184)">
              <g>
                <path
                  d="M 48.15625 -119.96875 L 0.84375 -119.96875 L 0.84375 -147.84375 L 129.671875 -147.84375 L 129.671875 -119.96875 L 82.375 -119.96875 L 82.375 0 L 48.15625 0 Z M 48.15625 -119.96875 " />
              </g>
            </g>
          </g>
        </g>
      </g>
      <g transform="matrix(1, 0, 0, 1, 462, 92)">
        <g clip-path="url(#7bf211fa00)">
          <g fill="#0d0d0d" fill-opacity="1">
            <g transform="translate(1.200894, 124.124412)">
              <g>
                <path
                  d="M 7.0625 0 L 7.0625 -93.21875 L 29.578125 -93.21875 L 29.578125 -18.296875 L 68.359375 -18.296875 L 68.359375 0 Z M 7.0625 0 " />
              </g>
            </g>
          </g>
          <g fill="#0d0d0d" fill-opacity="1">
            <g transform="translate(70.31314, 124.124412)">
              <g>
                <path
                  d="M 39.734375 1.3125 C 32.421875 1.3125 26.113281 -0.132812 20.8125 -3.03125 C 15.519531 -5.925781 11.457031 -10.066406 8.625 -15.453125 C 5.789062 -20.835938 4.375 -27.25 4.375 -34.6875 C 4.375 -41.90625 5.796875 -48.222656 8.640625 -53.640625 C 11.492188 -59.054688 15.515625 -63.273438 20.703125 -66.296875 C 25.898438 -69.316406 32.015625 -70.828125 39.046875 -70.828125 C 44.023438 -70.828125 48.578125 -70.050781 52.703125 -68.5 C 56.828125 -66.945312 60.390625 -64.65625 63.390625 -61.625 C 66.398438 -58.59375 68.738281 -54.851562 70.40625 -50.40625 C 72.082031 -45.957031 72.921875 -40.867188 72.921875 -35.140625 L 72.921875 -29.578125 L 12.15625 -29.578125 L 12.15625 -42.515625 L 52.203125 -42.515625 C 52.171875 -44.878906 51.609375 -46.984375 50.515625 -48.828125 C 49.429688 -50.679688 47.9375 -52.128906 46.03125 -53.171875 C 44.132812 -54.222656 41.957031 -54.75 39.5 -54.75 C 37.019531 -54.75 34.789062 -54.195312 32.8125 -53.09375 C 30.84375 -51.988281 29.28125 -50.488281 28.125 -48.59375 C 26.976562 -46.695312 26.375 -44.546875 26.3125 -42.140625 L 26.3125 -29 C 26.3125 -26.144531 26.867188 -23.644531 27.984375 -21.5 C 29.109375 -19.363281 30.703125 -17.703125 32.765625 -16.515625 C 34.828125 -15.335938 37.285156 -14.75 40.140625 -14.75 C 42.117188 -14.75 43.910156 -15.019531 45.515625 -15.5625 C 47.117188 -16.113281 48.5 -16.921875 49.65625 -17.984375 C 50.8125 -19.046875 51.675781 -20.347656 52.25 -21.890625 L 72.6875 -21.296875 C 71.832031 -16.710938 69.972656 -12.726562 67.109375 -9.34375 C 64.242188 -5.96875 60.488281 -3.347656 55.84375 -1.484375 C 51.207031 0.378906 45.835938 1.3125 39.734375 1.3125 Z M 39.734375 1.3125 " />
              </g>
            </g>
          </g>
          <g fill="#0d0d0d" fill-opacity="1">
            <g transform="translate(143.749128, 124.124412)">
              <g>
                <path
                  d="M 46.515625 -69.90625 L 46.515625 -53.53125 L 2.40625 -53.53125 L 2.40625 -69.90625 Z M 11.65625 -86.65625 L 33.90625 -86.65625 L 33.90625 -21.984375 C 33.90625 -20.617188 34.125 -19.519531 34.5625 -18.6875 C 35.007812 -17.851562 35.65625 -17.257812 36.5 -16.90625 C 37.351562 -16.5625 38.367188 -16.390625 39.546875 -16.390625 C 40.398438 -16.390625 41.300781 -16.472656 42.25 -16.640625 C 43.207031 -16.804688 43.929688 -16.945312 44.421875 -17.0625 L 47.796875 -1 C 46.734375 -0.695312 45.238281 -0.320312 43.3125 0.125 C 41.382812 0.582031 39.082031 0.875 36.40625 1 C 31.1875 1.238281 26.71875 0.625 23 -0.84375 C 19.289062 -2.3125 16.457031 -4.609375 14.5 -7.734375 C 12.539062 -10.859375 11.59375 -14.789062 11.65625 -19.53125 Z M 11.65625 -86.65625 " />
              </g>
            </g>
          </g>
          <g fill="#0d0d0d" fill-opacity="1">
            <g transform="translate(190.742009, 124.124412)">
              <g>
                <path
                  d="M 25.578125 -93.21875 L 25.578125 -82.84375 C 25.578125 -79.957031 25.007812 -77.050781 23.875 -74.125 C 22.738281 -71.195312 21.257812 -68.457031 19.4375 -65.90625 C 17.613281 -63.351562 15.6875 -61.195312 13.65625 -59.4375 L 4.1875 -64.625 C 5.582031 -66.9375 6.828125 -69.539062 7.921875 -72.4375 C 9.015625 -75.332031 9.5625 -78.785156 9.5625 -82.796875 L 9.5625 -93.21875 Z M 25.578125 -93.21875 " />
              </g>
            </g>
          </g>
          <g fill="#0d0d0d" fill-opacity="1">
            <g transform="translate(217.982209, 124.124412)">
              <g>
                <path
                  d="M 68.09375 -48.5625 L 47.65625 -48.015625 C 47.445312 -49.472656 46.867188 -50.769531 45.921875 -51.90625 C 44.984375 -53.050781 43.765625 -53.945312 42.265625 -54.59375 C 40.765625 -55.25 39.023438 -55.578125 37.046875 -55.578125 C 34.472656 -55.578125 32.28125 -55.0625 30.46875 -54.03125 C 28.664062 -53 27.78125 -51.601562 27.8125 -49.84375 C 27.78125 -48.476562 28.332031 -47.289062 29.46875 -46.28125 C 30.601562 -45.28125 32.644531 -44.476562 35.59375 -43.875 L 49.0625 -41.328125 C 56.039062 -39.992188 61.238281 -37.78125 64.65625 -34.6875 C 68.070312 -31.59375 69.796875 -27.492188 69.828125 -22.390625 C 69.796875 -17.597656 68.375 -13.425781 65.5625 -9.875 C 62.757812 -6.320312 58.929688 -3.566406 54.078125 -1.609375 C 49.222656 0.335938 43.664062 1.3125 37.40625 1.3125 C 27.425781 1.3125 19.5625 -0.738281 13.8125 -4.84375 C 8.0625 -8.957031 4.773438 -14.472656 3.953125 -21.390625 L 25.9375 -21.9375 C 26.425781 -19.382812 27.6875 -17.441406 29.71875 -16.109375 C 31.75 -14.773438 34.34375 -14.109375 37.5 -14.109375 C 40.351562 -14.109375 42.675781 -14.640625 44.46875 -15.703125 C 46.257812 -16.765625 47.171875 -18.175781 47.203125 -19.9375 C 47.171875 -21.507812 46.472656 -22.773438 45.109375 -23.734375 C 43.742188 -24.691406 41.601562 -25.441406 38.6875 -25.984375 L 26.484375 -28.3125 C 19.472656 -29.582031 14.253906 -31.9375 10.828125 -35.375 C 7.398438 -38.820312 5.703125 -43.21875 5.734375 -48.5625 C 5.703125 -53.238281 6.945312 -57.238281 9.46875 -60.5625 C 11.988281 -63.882812 15.566406 -66.425781 20.203125 -68.1875 C 24.847656 -69.945312 30.328125 -70.828125 36.640625 -70.828125 C 46.109375 -70.828125 53.570312 -68.84375 59.03125 -64.875 C 64.488281 -60.914062 67.507812 -55.476562 68.09375 -48.5625 Z M 68.09375 -48.5625 " />
              </g>
            </g>
          </g>
        </g>
      </g>
      <g clip-path="url(#399f5a8dac)">
        <g transform="matrix(1, 0, 0, 1, 463, 197)">
          <g clip-path="url(#a86c82139b)">
            <g fill="#00bfa5" fill-opacity="1">
              <g transform="translate(0.096439, 123.864878)">
                <g>
                  <path
                    d="M 95.03125 -46.609375 C 95.03125 -36.347656 93.054688 -27.648438 89.109375 -20.515625 C 85.171875 -13.390625 79.835938 -7.972656 73.109375 -4.265625 C 66.390625 -0.566406 58.859375 1.28125 50.515625 1.28125 C 42.140625 1.28125 34.597656 -0.582031 27.890625 -4.3125 C 21.191406 -8.050781 15.875 -13.476562 11.9375 -20.59375 C 8.007812 -27.707031 6.046875 -36.378906 6.046875 -46.609375 C 6.046875 -56.859375 8.007812 -65.550781 11.9375 -72.6875 C 15.875 -79.820312 21.191406 -85.238281 27.890625 -88.9375 C 34.597656 -92.632812 42.140625 -94.484375 50.515625 -94.484375 C 58.859375 -94.484375 66.390625 -92.632812 73.109375 -88.9375 C 79.835938 -85.238281 85.171875 -79.820312 89.109375 -72.6875 C 93.054688 -65.550781 95.03125 -56.859375 95.03125 -46.609375 Z M 72 -46.609375 C 72 -52.679688 71.140625 -57.804688 69.421875 -61.984375 C 67.710938 -66.171875 65.257812 -69.34375 62.0625 -71.5 C 58.863281 -73.65625 55.015625 -74.734375 50.515625 -74.734375 C 46.054688 -74.734375 42.21875 -73.65625 39 -71.5 C 35.789062 -69.34375 33.328125 -66.171875 31.609375 -61.984375 C 29.890625 -57.804688 29.03125 -52.679688 29.03125 -46.609375 C 29.03125 -40.535156 29.890625 -35.40625 31.609375 -31.21875 C 33.328125 -27.03125 35.789062 -23.859375 39 -21.703125 C 42.21875 -19.554688 46.054688 -18.484375 50.515625 -18.484375 C 55.015625 -18.484375 58.863281 -19.554688 62.0625 -21.703125 C 65.257812 -23.859375 67.710938 -27.03125 69.421875 -31.21875 C 71.140625 -35.40625 72 -40.535156 72 -46.609375 Z M 72 -46.609375 " />
                </g>
              </g>
            </g>
            <g fill="#00bfa5" fill-opacity="1">
              <g transform="translate(95.935218, 123.864878)">
                <g>
                  <path
                    d="M 7.0625 0 L 7.0625 -69.90625 L 28.671875 -69.90625 L 28.671875 -57.171875 L 29.40625 -57.171875 C 30.675781 -61.773438 32.753906 -65.207031 35.640625 -67.46875 C 38.523438 -69.738281 41.878906 -70.875 45.703125 -70.875 C 46.734375 -70.875 47.789062 -70.800781 48.875 -70.65625 C 49.96875 -70.519531 50.988281 -70.316406 51.9375 -70.046875 L 51.9375 -50.703125 C 50.875 -51.066406 49.484375 -51.351562 47.765625 -51.5625 C 46.054688 -51.78125 44.53125 -51.890625 43.1875 -51.890625 C 40.550781 -51.890625 38.175781 -51.304688 36.0625 -50.140625 C 33.957031 -48.972656 32.304688 -47.347656 31.109375 -45.265625 C 29.910156 -43.179688 29.3125 -40.742188 29.3125 -37.953125 L 29.3125 0 Z M 7.0625 0 " />
                </g>
              </g>
            </g>
            <g fill="#00bfa5" fill-opacity="1">
              <g transform="translate(144.663517, 123.864878)">
                <g>
                  <path
                    d="M 32.59375 1 C 27.425781 1 22.734375 -0.332031 18.515625 -3 C 14.304688 -5.675781 10.941406 -9.679688 8.421875 -15.015625 C 5.898438 -20.359375 4.640625 -26.988281 4.640625 -34.90625 C 4.640625 -43.132812 5.941406 -49.898438 8.546875 -55.203125 C 11.160156 -60.515625 14.582031 -64.445312 18.8125 -67 C 23.050781 -69.550781 27.613281 -70.828125 32.5 -70.828125 C 36.164062 -70.828125 39.300781 -70.195312 41.90625 -68.9375 C 44.519531 -67.675781 46.675781 -66.054688 48.375 -64.078125 C 50.082031 -62.109375 51.375 -60.0625 52.25 -57.9375 L 52.703125 -57.9375 L 52.703125 -93.21875 L 74.96875 -93.21875 L 74.96875 0 L 52.9375 0 L 52.9375 -11.328125 L 52.25 -11.328125 C 51.3125 -9.179688 49.976562 -7.164062 48.25 -5.28125 C 46.519531 -3.394531 44.359375 -1.875 41.765625 -0.71875 C 39.171875 0.425781 36.113281 1 32.59375 1 Z M 40.328125 -16.34375 C 43.023438 -16.34375 45.328125 -17.109375 47.234375 -18.640625 C 49.148438 -20.171875 50.625 -22.332031 51.65625 -25.125 C 52.6875 -27.914062 53.203125 -31.191406 53.203125 -34.953125 C 53.203125 -38.773438 52.691406 -42.066406 51.671875 -44.828125 C 50.660156 -47.585938 49.191406 -49.710938 47.265625 -51.203125 C 45.335938 -52.691406 43.023438 -53.4375 40.328125 -53.4375 C 37.566406 -53.4375 35.226562 -52.675781 33.3125 -51.15625 C 31.40625 -49.644531 29.957031 -47.503906 28.96875 -44.734375 C 27.976562 -41.972656 27.484375 -38.710938 27.484375 -34.953125 C 27.484375 -31.191406 27.984375 -27.914062 28.984375 -25.125 C 29.992188 -22.332031 31.445312 -20.171875 33.34375 -18.640625 C 35.238281 -17.109375 37.566406 -16.34375 40.328125 -16.34375 Z M 40.328125 -16.34375 " />
                </g>
              </g>
            </g>
            <g fill="#00bfa5" fill-opacity="1">
              <g transform="translate(221.430526, 123.864878)">
                <g>
                  <path
                    d="M 39.734375 1.3125 C 32.421875 1.3125 26.113281 -0.132812 20.8125 -3.03125 C 15.519531 -5.925781 11.457031 -10.066406 8.625 -15.453125 C 5.789062 -20.835938 4.375 -27.25 4.375 -34.6875 C 4.375 -41.90625 5.796875 -48.222656 8.640625 -53.640625 C 11.492188 -59.054688 15.515625 -63.273438 20.703125 -66.296875 C 25.898438 -69.316406 32.015625 -70.828125 39.046875 -70.828125 C 44.023438 -70.828125 48.578125 -70.050781 52.703125 -68.5 C 56.828125 -66.945312 60.390625 -64.65625 63.390625 -61.625 C 66.398438 -58.59375 68.738281 -54.851562 70.40625 -50.40625 C 72.082031 -45.957031 72.921875 -40.867188 72.921875 -35.140625 L 72.921875 -29.578125 L 12.15625 -29.578125 L 12.15625 -42.515625 L 52.203125 -42.515625 C 52.171875 -44.878906 51.609375 -46.984375 50.515625 -48.828125 C 49.429688 -50.679688 47.9375 -52.128906 46.03125 -53.171875 C 44.132812 -54.222656 41.957031 -54.75 39.5 -54.75 C 37.019531 -54.75 34.789062 -54.195312 32.8125 -53.09375 C 30.84375 -51.988281 29.28125 -50.488281 28.125 -48.59375 C 26.976562 -46.695312 26.375 -44.546875 26.3125 -42.140625 L 26.3125 -29 C 26.3125 -26.144531 26.867188 -23.644531 27.984375 -21.5 C 29.109375 -19.363281 30.703125 -17.703125 32.765625 -16.515625 C 34.828125 -15.335938 37.285156 -14.75 40.140625 -14.75 C 42.117188 -14.75 43.910156 -15.019531 45.515625 -15.5625 C 47.117188 -16.113281 48.5 -16.921875 49.65625 -17.984375 C 50.8125 -19.046875 51.675781 -20.347656 52.25 -21.890625 L 72.6875 -21.296875 C 71.832031 -16.710938 69.972656 -12.726562 67.109375 -9.34375 C 64.242188 -5.96875 60.488281 -3.347656 55.84375 -1.484375 C 51.207031 0.378906 45.835938 1.3125 39.734375 1.3125 Z M 39.734375 1.3125 " />
                </g>
              </g>
            </g>
            <g fill="#00bfa5" fill-opacity="1">
              <g transform="translate(293.463708, 123.864878)">
                <g>
                  <path
                    d="M 7.0625 0 L 7.0625 -69.90625 L 28.671875 -69.90625 L 28.671875 -57.171875 L 29.40625 -57.171875 C 30.675781 -61.773438 32.753906 -65.207031 35.640625 -67.46875 C 38.523438 -69.738281 41.878906 -70.875 45.703125 -70.875 C 46.734375 -70.875 47.789062 -70.800781 48.875 -70.65625 C 49.96875 -70.519531 50.988281 -70.316406 51.9375 -70.046875 L 51.9375 -50.703125 C 50.875 -51.066406 49.484375 -51.351562 47.765625 -51.5625 C 46.054688 -51.78125 44.53125 -51.890625 43.1875 -51.890625 C 40.550781 -51.890625 38.175781 -51.304688 36.0625 -50.140625 C 33.957031 -48.972656 32.304688 -47.347656 31.109375 -45.265625 C 29.910156 -43.179688 29.3125 -40.742188 29.3125 -37.953125 L 29.3125 0 Z M 7.0625 0 " />
                </g>
              </g>
            </g>
            <g fill="#00bfa5" fill-opacity="1">
              <g transform="translate(342.191996, 123.864878)">
                <g>
                  <path
                    d="M 29.578125 -93.21875 L 29.578125 0 L 7.0625 0 L 7.0625 -93.21875 Z M 29.578125 -93.21875 " />
                </g>
              </g>
            </g>
            <g clip-path="url(#a84242475f)">
              <g fill="#00bfa5" fill-opacity="1">
                <g transform="translate(373.578186, 123.864878)">
                  <g>
                    <path
                      d="M 46.515625 -69.90625 L 46.515625 -53.53125 L 2.40625 -53.53125 L 2.40625 -69.90625 Z M 11.65625 -86.65625 L 33.90625 -86.65625 L 33.90625 -21.984375 C 33.90625 -20.617188 34.125 -19.519531 34.5625 -18.6875 C 35.007812 -17.851562 35.65625 -17.257812 36.5 -16.90625 C 37.351562 -16.5625 38.367188 -16.390625 39.546875 -16.390625 C 40.398438 -16.390625 41.300781 -16.472656 42.25 -16.640625 C 43.207031 -16.804688 43.929688 -16.945312 44.421875 -17.0625 L 47.796875 -1 C 46.734375 -0.695312 45.238281 -0.320312 43.3125 0.125 C 41.382812 0.582031 39.082031 0.875 36.40625 1 C 31.1875 1.238281 26.71875 0.625 23 -0.84375 C 19.289062 -2.3125 16.457031 -4.609375 14.5 -7.734375 C 12.539062 -10.859375 11.59375 -14.789062 11.65625 -19.53125 Z M 11.65625 -86.65625 " />
                  </g>
                </g>
              </g>
            </g>
          </g>
        </g>
      </g>
    </g>
  </g>
</svg>
