<svg xmlns="http://www.w3.org/2000/svg" xmlns:xlink="http://www.w3.org/1999/xlink" width="512"
  zoomAndPan="magnify" viewBox="0 0 768 767.999994" height="512"
  preserveAspectRatio="xMidYMid meet" version="1.0">
  <defs>
    <g />
    <clipPath id="78de66e1a0">
      <path d="M 0 0 L 767.230469 0 L 767.230469 768 L 0 768 Z M 0 0 " clip-rule="nonzero" />
    </clipPath>
    <clipPath id="fb8512a708">
      <rect x="0" width="501" y="0" height="443" />
    </clipPath>
    <clipPath id="65c1452ee6">
      <rect x="0" width="485" y="0" height="443" />
    </clipPath>
  </defs>
  <g transform="matrix(1, 0, 0, 1, 120, 12)">
    <g clip-path="url(#fb8512a708)">
      <g fill="#000000" fill-opacity="1">
        <g transform="translate(1.10498, 351.325115)">
          <g>
            <path
              d="M 30.0625 -253.59375 L 88.765625 -253.59375 L 88.765625 -47.828125 L 215.921875 -47.828125 L 215.921875 0 L 30.0625 0 Z M 30.0625 -253.59375 " />
          </g>
        </g>
      </g>
      <g fill="#000000" fill-opacity="1">
        <g transform="translate(204.717201, 351.325115)">
          <g>
            <path
              d="M 152.875 4.34375 C 126.550781 4.34375 102.820312 -1.328125 81.6875 -12.671875 C 60.5625 -24.023438 44.019531 -39.664062 32.0625 -59.59375 C 20.101562 -79.519531 14.125 -101.921875 14.125 -126.796875 C 14.125 -151.671875 20.101562 -174.070312 32.0625 -194 C 44.019531 -213.925781 60.5625 -229.5625 81.6875 -240.90625 C 102.820312 -252.257812 126.550781 -257.9375 152.875 -257.9375 C 179.207031 -257.9375 202.878906 -252.257812 223.890625 -240.90625 C 244.898438 -229.5625 261.441406 -213.925781 273.515625 -194 C 285.597656 -174.070312 291.640625 -151.671875 291.640625 -126.796875 C 291.640625 -101.921875 285.597656 -79.519531 273.515625 -59.59375 C 261.441406 -39.664062 244.898438 -24.023438 223.890625 -12.671875 C 202.878906 -1.328125 179.207031 4.34375 152.875 4.34375 Z M 152.875 -45.640625 C 167.851562 -45.640625 181.378906 -49.082031 193.453125 -55.96875 C 205.535156 -62.851562 215.015625 -72.453125 221.890625 -84.765625 C 228.773438 -97.085938 232.21875 -111.097656 232.21875 -126.796875 C 232.21875 -142.492188 228.773438 -156.5 221.890625 -168.8125 C 215.015625 -181.132812 205.535156 -190.738281 193.453125 -197.625 C 181.378906 -204.507812 167.851562 -207.953125 152.875 -207.953125 C 137.90625 -207.953125 124.378906 -204.507812 112.296875 -197.625 C 100.222656 -190.738281 90.742188 -181.132812 83.859375 -168.8125 C 76.984375 -156.5 73.546875 -142.492188 73.546875 -126.796875 C 73.546875 -111.097656 76.984375 -97.085938 83.859375 -84.765625 C 90.742188 -72.453125 100.222656 -62.851562 112.296875 -55.96875 C 124.378906 -49.082031 137.90625 -45.640625 152.875 -45.640625 Z M 152.875 -45.640625 " />
          </g>
        </g>
      </g>
    </g>
  </g>
  <g transform="matrix(1, 0, 0, 1, 181, 307)">
    <g clip-path="url(#65c1452ee6)">
      <g fill="#000000" fill-opacity="1">
        <g transform="translate(0.412209, 350.538822)">
          <g>
            <path
              d="M 30.0625 -253.578125 L 88.75 -253.578125 L 88.75 0 L 30.0625 0 Z M 30.0625 -253.578125 " />
          </g>
        </g>
      </g>
      <g fill="#000000" fill-opacity="1">
        <g transform="translate(189.881478, 350.538822)">
          <g>
            <path
              d="M 82.59375 -205.765625 L 1.453125 -205.765625 L 1.453125 -253.578125 L 222.4375 -253.578125 L 222.4375 -205.765625 L 141.28125 -205.765625 L 141.28125 0 L 82.59375 0 Z M 82.59375 -205.765625 " />
          </g>
        </g>
      </g>
    </g>
  </g>
</svg>